<?xml version="1.0" standalone="no"?>
<!DOCTYPE svg PUBLIC "-//W3C//DTD SVG 20010904//EN"
 "http://www.w3.org/TR/2001/REC-SVG-20010904/DTD/svg10.dtd">
<svg version="1.0" xmlns="http://www.w3.org/2000/svg"
 width="1500.000000pt" height="216.000000pt" viewBox="0 0 1500.000000 216.000000"
 preserveAspectRatio="xMidYMid meet">

<g transform="translate(0.000000,216.000000) scale(0.100000,-0.100000)"
fill="#000000" stroke="none">
<path d="M14282 2118 c-11 -24 -45 -98 -76 -165 -31 -67 -56 -127 -56 -133 0
-6 37 -10 98 -10 l98 0 145 157 c79 86 150 165 157 175 13 17 6 18 -167 18
l-180 0 -19 -42z"/>
<path d="M5179 1725 c-163 -33 -293 -125 -356 -253 -36 -72 -38 -80 -38 -176
0 -82 4 -110 22 -148 32 -69 70 -116 136 -164 77 -57 176 -94 429 -159 245
-62 310 -83 364 -118 166 -104 187 -305 47 -438 -140 -133 -451 -159 -668 -54
-122 58 -187 137 -225 270 -12 43 -21 60 -33 59 -10 0 -44 -1 -77 -2 l-60 -2
0 -40 c0 -130 115 -312 249 -395 202 -125 575 -139 797 -29 274 135 360 476
173 688 -90 102 -191 146 -515 226 -325 81 -407 119 -457 214 -30 57 -30 155
0 212 35 66 115 131 191 155 146 46 373 32 485 -29 82 -44 143 -126 168 -226
11 -45 12 -46 53 -46 22 0 58 3 79 6 32 6 37 10 37 34 0 38 -31 129 -65 185
-64 110 -201 197 -359 229 -94 19 -283 20 -377 1z"/>
<path d="M7 1714 c-4 -4 -7 -385 -7 -846 l0 -838 85 0 85 0 0 294 0 294 155
149 c86 81 159 149 163 151 5 1 149 -198 321 -443 l313 -445 115 0 c91 0 113
3 106 13 -6 6 -173 233 -371 504 l-362 492 163 158 c89 87 243 237 342 333
100 96 180 178 178 183 -3 4 -50 7 -106 7 l-102 0 -450 -450 c-247 -248 -453
-450 -457 -450 -4 0 -9 201 -10 448 l-3 447 -75 3 c-42 1 -79 0 -83 -4z"/>
<path d="M3917 1714 c-4 -4 -7 -385 -7 -846 l0 -838 85 0 85 0 -2 843 -3 842
-75 3 c-42 1 -79 0 -83 -4z"/>
<path d="M6315 1703 c3 -10 121 -340 261 -733 140 -393 274 -766 296 -828 l41
-112 184 2 185 3 299 835 c164 459 299 838 299 843 0 4 -81 7 -179 7 l-180 0
-202 -612 c-112 -337 -206 -616 -209 -620 -3 -5 -66 169 -140 385 -73 215
-168 493 -211 617 l-77 225 -187 3 c-176 2 -187 1 -180 -15z"/>
<path d="M8290 875 l0 -845 643 2 642 3 0 135 0 135 -470 5 -470 5 -3 228 -2
227 425 0 425 0 0 145 0 145 -425 0 -425 0 0 185 0 185 455 0 455 0 0 145 0
145 -625 0 -625 0 0 -845z"/>
<path d="M10100 876 l0 -846 170 0 170 0 0 350 0 350 88 0 c52 0 111 -7 142
-16 91 -27 123 -67 503 -636 l32 -47 203 -1 c111 0 202 2 202 5 0 9 -251 408
-307 488 -63 89 -132 160 -203 208 -55 38 -61 49 -27 49 31 0 119 30 183 63
147 75 233 240 221 427 -7 109 -27 173 -78 249 -67 101 -155 154 -297 182 -34
7 -243 13 -529 16 l-473 5 0 -846z m887 539 c126 -37 179 -188 108 -310 -49
-85 -139 -104 -477 -105 l-178 0 0 215 0 215 248 0 c192 0 260 -3 299 -15z"/>
<path d="M13710 875 l0 -845 640 0 640 0 0 140 0 140 -470 0 -470 0 0 230 0
230 425 0 425 0 0 145 0 145 -425 0 -425 0 0 185 0 185 455 0 455 0 0 145 0
145 -625 0 -625 0 0 -845z"/>
<path d="M1880 870 l0 -840 85 0 85 0 2 387 3 388 210 0 c207 -1 211 -1 268
-28 32 -15 76 -40 97 -57 58 -46 162 -188 328 -450 l150 -235 107 -3 c84 -2
106 0 102 10 -11 30 -304 478 -349 535 -70 88 -126 135 -226 186 -74 39 -83
46 -62 50 14 3 65 13 114 22 163 29 273 90 339 187 48 70 67 127 74 218 13
174 -74 343 -211 410 -108 54 -172 59 -668 60 l-448 0 0 -840z m954 681 c68
-27 138 -87 169 -146 18 -33 22 -57 22 -135 0 -84 -3 -101 -27 -146 -15 -29
-46 -68 -69 -88 -93 -79 -198 -96 -606 -96 l-273 0 0 321 0 320 363 -3 c353
-3 363 -4 421 -27z"/>
<path d="M12047 1704 c-4 -4 -7 -382 -7 -841 l0 -833 595 0 595 0 0 140 0 140
-420 0 -420 0 -2 697 -3 698 -166 3 c-91 1 -168 -1 -172 -4z"/>
</g>
</svg>
